<svg width="1505" height="1118" viewBox="0 0 1505 1118" fill="none" xmlns="http://www.w3.org/2000/svg">
<path d="M588.4 865.2C581 863.6 576.6 862.4 574.1 856.5C569.3 845.4 562 740.2 575.5 712.2C576.9 709.3 578.5 707.5 579.9 707.1C591.8 703.9 630.8 691.3 633.5 665.3C634.1 660 639 612.2 641.2 564.1C644.8 483.5 637.8 468.4 632.2 464C620.5 454.9 609 452.8 601.4 451.5C599.3 451.1 596.8 450.7 595.7 450.2C595.8 445.3 601.1 424.4 609.9 413.8C613 410.1 616.1 408.1 619.1 407.9C622.3 407.7 625.6 407.8 628.9 407.9C643.3 408.3 659.6 408.8 664.3 383.6C666.8 369.9 669.5 326.7 669.3 284.3C669 203.4 659.4 198.6 656.3 197.1C645.4 191.7 635.3 194.6 628.7 196.6C626.7 197.2 624.2 197.9 623 197.9C622.2 193.4 622.4 174.9 622.7 157C623 135.8 623.3 111.8 622.5 91.9C621.3 61.7 618 54.1 613.4 52C605.5 48.3 564.3 46.3 529.4 45.9C510.7 45.7 470.3 45.8 451.2 49.5C424.3 50 401.5 51.7 395.5 55.1C379.2 64.3 400.6 87.8 385.3 93.9C384.8 94.1 384.4 94.3 383.8 94.4C372.4 93.4 366 91.1 364.8 89C363.9 87.5 362.8 85.4 361.5 83C353.9 68.5 341.1 44.2 320.6 45.8C314.5 46.3 303.3 45.9 289 45.5C262.7 44.7 226.7 43.6 193.7 46.8C190.6 47.1 187.6 47.6 184.7 48.2C171.5 48.4 158 49 145.1 50.2C123.8 52.2 104.7 64 93.2 82.1C87.8 90.6 83.4 99.5 83 106C82 123.4 66.7 405.2 55.4 434.9C43.9 464.7 27 869.1 27 893.6C27 918.1 44.9 977.3 58.2 1003.9C71.5 1030.5 57.2 1064.2 76.6 1074.4C87 1079.9 125.5 1084.2 161.6 1085.4C175.1 1086.9 189.9 1088 202.9 1088.6C208.6 1088.9 219.2 1089.3 231 1089.3C250.5 1089.3 273.2 1088.2 281.5 1083.6C293.1 1077.1 294.8 1064.5 296.1 1054.3C297.1 1047 297.9 1040.7 301.7 1038.8C306.2 1036.6 318.1 1033.5 331.2 1031.6C332.3 1032.5 333.2 1033.5 333.9 1034.6C343.1 1050.9 339 1065.2 357.4 1071.4C367.4 1074.7 411.6 1079.9 452.9 1081.7C500 1086.4 565.7 1089.1 580 1079.4C594.3 1069.6 604.8 995.3 608.7 952.9C610.5 933.1 611.5 915.5 611.5 901.9C611.5 881 609.1 875.9 607.1 873.9C601.2 868 594.4 866.5 588.4 865.2ZM407.5 241C421.8 246.1 427.9 248.1 420.8 262.4C413.7 276.7 425.9 369.6 429 389C432.1 408.4 449.4 404.3 459.6 408.4C469.8 412.5 464.7 438 443.3 453.3C423.9 458.4 390.2 438 383 492.1C381.8 492.3 380.5 492.5 379.3 492.7C342.7 490.8 337.2 475.4 334.5 467.6C334 466.1 333.5 464.8 332.9 463.8C332.4 462.9 332.1 460.1 331.8 457.6C330.6 446.6 328.3 426.9 299.2 426.9C297.3 426.9 295.4 427 293.3 427.1C275.7 412.3 265.9 392.6 264.1 368.6C260.6 322 288.5 273.5 294.8 266.6C298.4 262.6 304.2 261 310.3 259.2C319.4 256.6 329.8 253.6 333.3 241.7C338.9 222.9 339.6 222.6 359.7 215.8C364.8 214 371.3 211.8 379.4 208.7C395.3 219.6 398.2 237.7 407.5 241ZM372.7 666.9C387 672 393.1 674 386 688.3C378.9 702.6 391.1 795.5 394.2 814.9C397.3 834.3 414.6 830.2 424.8 834.3C435 838.4 429.9 863.9 408.5 879.2C389.1 884.3 355.4 863.9 348.2 918C347 918.2 345.7 918.4 344.5 918.6C307.9 916.7 302.4 901.3 299.7 893.5C299.2 892 298.7 890.7 298.1 889.7C297.6 888.8 297.3 886 297 883.5C295.8 872.5 293.5 852.8 264.4 852.8C262.5 852.8 260.6 852.9 258.5 853C240.9 838.2 231.1 818.5 229.3 794.5C225.8 747.9 253.7 699.4 260 692.5C263.6 688.5 269.4 686.9 275.5 685.1C284.6 682.5 295 679.5 298.5 667.6C304.1 648.8 304.8 648.5 324.9 641.7C330 639.9 336.5 637.7 344.6 634.6C360.5 645.4 363.5 663.6 372.7 666.9ZM357.3 209.5C335.8 216.9 332.8 218.7 326.5 240.1C324.1 248.3 316.7 250.4 308.3 252.8C301.5 254.7 294.5 256.8 289.5 262.2C281.9 270.6 253.4 320.6 257 369.4C259 395.9 270 417.5 289.9 433.7L291 434.6L292.4 434.5C321.7 431.6 323.4 446.6 324.8 458.6C325.2 462.3 325.6 465.3 326.8 467.5C327.1 468 327.5 469.1 327.9 470.2C329.9 475.9 333.7 486.6 348.9 493.5C350.8 494.4 352.9 495.2 355.1 495.9C284.9 501.5 284.5 472.2 280.8 465.8C276.7 458.7 284.9 427 243 431.1C176.6 377 232.8 275.9 243 264.6C253.2 253.4 275.7 258.4 280.8 241.1C289 213.5 290 221.7 337.8 202.3C352 200.5 362.6 201.8 370.7 204.8C365.6 206.6 361.2 208.1 357.3 209.5ZM208.3 856.9C141.9 802.8 198.1 701.7 208.3 690.4C218.5 679.2 241 684.2 246.1 666.9C254.3 639.3 255.3 647.5 303.1 628.1C317.3 626.3 327.9 627.6 336 630.6C330.8 632.5 326.4 634 322.5 635.4C301 642.8 298 644.6 291.7 666C289.3 674.2 281.9 676.3 273.5 678.7C266.7 680.6 259.7 682.7 254.7 688.1C247.1 696.5 218.6 746.5 222.2 795.3C224.2 821.8 235.2 843.4 255.1 859.6L256.2 860.5L257.6 860.4C286.9 857.5 288.6 872.5 290 884.5C290.4 888.2 290.8 891.2 292 893.4C292.3 893.9 292.7 895 293.1 896.1C295.1 901.8 298.9 912.5 314.1 919.4C316 920.3 318.1 921.1 320.3 921.8C250.1 927.4 249.7 898.1 246 891.7C242 884.4 250.2 852.8 208.3 856.9ZM320.9 52.9C336.7 51.6 348.2 73.4 355 86.4C356.3 88.9 357.5 91.1 358.5 92.8C359.7 94.9 362.1 96.6 365.3 97.9C344.4 99.9 316.9 98.3 312.5 91C307.7 83 298.4 60.8 284.3 52.6C285.8 52.6 287.2 52.7 288.6 52.7C303 53 314.5 53.4 320.9 52.9ZM298.7 1032.5C291.5 1036.1 290.4 1044.9 289.2 1053.4C288 1062.9 286.7 1072.8 278.1 1077.5C272.2 1080.8 252.4 1082.5 226.2 1082.3C228.1 1081.8 229.6 1081.2 230.8 1080.6C249.2 1070.4 239 1041.8 251.2 1035.7C260.2 1031.2 295.9 1023.9 317.7 1026.9C309.1 1028.6 302.1 1030.7 298.7 1032.5ZM604.1 918.8C603.1 941.1 600.5 968.6 596.8 994.4C589.2 1047.6 580.9 1070.3 576 1073.6C570.4 1077.4 551.4 1079.3 523.4 1078.9C525.8 1078.2 527.7 1077.4 529 1076.5C548.4 1063.2 566.8 887.6 555.6 876.3C544.4 865.1 528 872.2 521.9 857.9C515.8 843.6 507.6 709.8 530.1 703.7C552.6 697.6 579.1 684.3 581.2 664.9C583.2 645.5 599.6 481.1 581.2 466.8C562.8 452.5 544.4 456.6 543.4 451.5C542.4 446.4 552.6 405.5 570 404.5C587.4 403.5 606.8 410.6 611.9 383.1C617 355.6 622.1 208.5 605.8 200.3C589.5 192.1 575.2 205.4 571.1 200.3C567 195.2 576.2 61.4 562.9 55.3C561.6 54.7 559.2 54.2 555.8 53.6C585.6 54.6 606.3 56.6 610.3 58.4C611 59 614.3 63.6 615.4 93.7C616.1 113.2 615.8 136.5 615.6 157C615.1 194 615.3 200 617.3 202.4C620.4 206.3 625.4 204.9 630.7 203.3C637 201.4 644.8 199.1 653.2 203.3C653.6 203.5 657.3 206 659.9 228.7C661.5 242.6 662.3 261.9 662.4 284.3C662.5 325.7 659.9 369.2 657.5 382.3C653.9 401.6 643.6 401.3 629.2 400.9C625.8 400.8 622.3 400.7 618.8 400.9C613.4 401.2 608.4 404.4 603.8 410.4C593.8 423.4 588.1 447.2 589.1 452.1C590 456.5 594.6 457.3 600.4 458.3C607.3 459.5 617.8 461.4 628.2 469.5C631.3 471.9 638 485.8 634.5 563.7C632.3 611.5 627.4 659.2 626.9 664.5C625.1 681.6 600.7 694.2 578.4 700.3C574.9 701.3 571.9 704.2 569.5 709.2C561.1 726.6 560.7 767.6 561.2 790.5C561.9 821.3 564.9 852.2 568 859.3C572.1 868.8 580.1 870.5 587.2 872.1C592.8 873.3 598.1 874.4 602.4 878.8C602.2 878.9 605.6 883.5 604.1 918.8Z" fill="#E5E5DE"/>
<path d="M1479.5 284.3C1479.2 203.4 1469.6 198.6 1466.5 197.1C1455.6 191.7 1445.5 194.6 1438.9 196.6C1436.9 197.2 1434.3 197.9 1433.2 197.9C1432.4 193.4 1432.6 174.9 1432.9 157C1433.2 135.8 1433.5 111.8 1432.7 91.9C1431.5 61.7 1428.2 54.1 1423.6 52C1415.7 48.3 1374.5 46.3 1339.6 45.9C1320.9 45.7 1280.5 45.8 1261.4 49.5C1234.5 50 1211.7 51.7 1205.7 55.1C1189.4 64.3 1210.8 87.8 1195.5 93.9C1195 94.1 1194.6 94.3 1194 94.4C1182.6 93.4 1176.2 91.1 1175 89C1174.1 87.5 1173 85.4 1171.7 83C1164.1 68.5 1151.3 44.2 1130.8 45.8C1124.7 46.3 1113.5 45.9 1099.2 45.5C1072.9 44.7 1036.9 43.6 1003.9 46.8C1000.8 47.1 997.8 47.6 994.9 48.2C981.7 48.4 968.2 49 955.3 50.2C934 52.2 914.9 64 903.4 82.1C898 90.6 893.6 99.5 893.2 106C892.2 123.4 876.9 405.2 865.6 434.9C854.4 464.5 837.5 868.9 837.5 893.5C837.5 918.1 855.4 977.2 868.7 1003.8C882 1030.4 867.7 1064.1 887.1 1074.3C897.5 1079.8 936 1084.1 972.1 1085.3C985.6 1086.8 1000.4 1087.9 1013.4 1088.5C1019.1 1088.8 1029.7 1089.2 1041.5 1089.2C1061 1089.2 1083.7 1088.1 1092 1083.5C1103.6 1077 1105.3 1064.4 1106.6 1054.2C1107.6 1046.9 1108.4 1040.6 1112.2 1038.7C1116.7 1036.5 1128.6 1033.4 1141.7 1031.5C1142.8 1032.4 1143.7 1033.4 1144.4 1034.5C1153.6 1050.8 1149.5 1065.1 1167.9 1071.3C1177.9 1074.6 1222.1 1079.8 1263.4 1081.6C1310.5 1086.3 1376.2 1089 1390.5 1079.3C1404.8 1069.5 1415.3 995.2 1419.2 952.8C1421 933 1422 915.4 1422 901.8C1422 880.9 1419.6 875.8 1417.6 873.8C1411.8 868 1405 866.5 1398.9 865.2C1391.5 863.6 1387.1 862.4 1384.6 856.5C1379.8 845.4 1372.5 740.2 1386 712.2C1387.4 709.3 1389 707.5 1390.4 707.1C1402.3 703.9 1441.3 691.3 1444 665.3C1444.6 660 1449.5 612.1 1451.7 564.1C1455.3 483.5 1448.3 468.4 1442.7 464C1431 454.9 1419.5 452.8 1411.9 451.5C1409.8 451.1 1407.3 450.7 1406.2 450.2C1406.3 445.3 1411.6 424.3 1420.4 413.8C1423.5 410.1 1426.6 408.1 1429.6 407.9C1432.8 407.7 1436.1 407.8 1439.4 407.9C1453.8 408.3 1470.1 408.8 1474.7 383.6C1477 369.9 1479.6 326.7 1479.5 284.3ZM1217.7 241C1232 246.1 1238.1 248.1 1231 262.4C1223.9 276.7 1236.1 369.6 1239.2 389C1242.3 408.4 1259.6 404.3 1269.8 408.4C1280 412.5 1274.9 438 1253.5 453.3C1234.1 458.4 1200.4 438 1193.2 492.1C1192 492.3 1190.7 492.5 1189.5 492.7C1152.9 490.8 1147.4 475.4 1144.7 467.6C1144.2 466.1 1143.7 464.8 1143.1 463.8C1142.6 462.9 1142.3 460.1 1142 457.6C1140.8 446.6 1138.5 426.9 1109.4 426.9C1107.5 426.9 1105.6 427 1103.5 427.1C1085.9 412.3 1076.1 392.6 1074.3 368.6C1070.8 322 1098.7 273.5 1105 266.6C1108.6 262.6 1114.4 261 1120.5 259.2C1129.6 256.6 1140 253.6 1143.5 241.7C1149.1 222.9 1149.8 222.6 1169.9 215.8C1175 214 1181.5 211.8 1189.6 208.7C1205.5 219.6 1208.5 237.7 1217.7 241ZM1183 666.9C1197.3 672 1203.4 674 1196.3 688.3C1189.2 702.6 1201.4 795.5 1204.5 814.9C1207.6 834.3 1224.9 830.2 1235.1 834.3C1245.3 838.4 1240.2 863.9 1218.8 879.2C1199.4 884.3 1165.7 863.9 1158.5 918C1157.3 918.2 1156 918.4 1154.8 918.6C1118.2 916.7 1112.7 901.3 1110 893.5C1109.5 892 1109 890.7 1108.4 889.7C1107.9 888.8 1107.6 886 1107.3 883.5C1106.1 872.5 1103.8 852.8 1074.7 852.8C1072.8 852.8 1070.9 852.9 1068.8 853C1051.2 838.2 1041.4 818.5 1039.6 794.5C1036.1 747.9 1064 699.4 1070.3 692.5C1073.9 688.5 1079.7 686.9 1085.8 685.1C1094.9 682.5 1105.3 679.5 1108.8 667.6C1114.4 648.8 1115.1 648.5 1135.2 641.7C1140.3 639.9 1146.8 637.7 1154.9 634.6C1170.8 645.4 1173.8 663.6 1183 666.9ZM1167.6 209.5C1146.1 216.9 1143.1 218.7 1136.8 240.1C1134.4 248.3 1127 250.4 1118.6 252.8C1111.8 254.7 1104.8 256.8 1099.8 262.2C1092.2 270.6 1063.7 320.6 1067.3 369.4C1069.3 395.9 1080.3 417.5 1100.2 433.7L1101.3 434.6L1102.7 434.5C1132 431.6 1133.7 446.6 1135.1 458.6C1135.5 462.3 1135.9 465.3 1137.1 467.5C1137.4 468 1137.8 469.1 1138.2 470.2C1140.2 475.9 1144 486.6 1159.2 493.5C1161.1 494.4 1163.2 495.2 1165.4 495.9C1095.2 501.5 1094.8 472.2 1091.1 465.8C1087 458.7 1095.2 427 1053.3 431.1C986.9 377 1043.1 275.9 1053.3 264.6C1063.5 253.4 1086 258.4 1091.1 241.1C1099.3 213.5 1100.3 221.7 1148.1 202.3C1162.3 200.5 1172.9 201.8 1181 204.8C1175.9 206.6 1171.4 208.1 1167.6 209.5ZM1018.6 856.9C952.2 802.8 1008.4 701.7 1018.6 690.4C1028.8 679.2 1051.3 684.2 1056.4 666.9C1064.6 639.3 1065.6 647.5 1113.4 628.1C1127.6 626.3 1138.2 627.6 1146.3 630.6C1141.1 632.5 1136.7 634 1132.8 635.4C1111.3 642.8 1108.3 644.6 1102 666C1099.6 674.2 1092.2 676.3 1083.8 678.7C1077 680.6 1070 682.7 1065 688.1C1057.4 696.5 1028.9 746.5 1032.5 795.3C1034.5 821.8 1045.5 843.4 1065.4 859.6L1066.5 860.5L1067.9 860.4C1097.2 857.5 1098.9 872.5 1100.3 884.5C1100.7 888.2 1101.1 891.2 1102.3 893.4C1102.6 893.9 1103 895 1103.4 896.1C1105.4 901.8 1109.2 912.5 1124.4 919.4C1126.3 920.3 1128.4 921.1 1130.6 921.8C1060.4 927.4 1060 898.1 1056.3 891.7C1052.3 884.4 1060.4 852.8 1018.6 856.9ZM1131.2 52.9C1147 51.6 1158.5 73.4 1165.3 86.4C1166.6 88.9 1167.8 91.1 1168.8 92.8C1170 94.9 1172.4 96.6 1175.6 97.9C1154.7 99.9 1127.2 98.3 1122.8 91C1118 83 1108.7 60.8 1094.6 52.6C1096.1 52.6 1097.5 52.7 1098.9 52.7C1113.3 53 1124.7 53.4 1131.2 52.9ZM1108.9 1032.5C1101.7 1036.1 1100.6 1044.9 1099.4 1053.4C1098.1 1062.9 1096.9 1072.8 1088.3 1077.5C1082.4 1080.8 1062.6 1082.5 1036.4 1082.3C1038.3 1081.8 1039.8 1081.2 1041 1080.6C1059.4 1070.4 1049.2 1041.8 1061.4 1035.7C1070.4 1031.2 1106.1 1023.9 1127.9 1026.9C1119.4 1028.6 1112.4 1030.7 1108.9 1032.5ZM1467.5 382.4C1463.9 401.7 1453.6 401.4 1439.2 401C1435.8 400.9 1432.3 400.8 1428.8 401C1423.4 401.3 1418.4 404.5 1413.8 410.5C1403.8 423.5 1398.1 447.3 1399.1 452.2C1400 456.6 1404.6 457.4 1410.4 458.4C1417.3 459.6 1427.8 461.5 1438.2 469.6C1441.3 472 1448 485.9 1444.5 563.8C1442.3 611.6 1437.4 659.3 1436.9 664.6C1435.1 681.7 1410.7 694.3 1388.4 700.4C1384.9 701.4 1381.9 704.3 1379.5 709.3C1371.1 726.7 1370.7 767.7 1371.2 790.6C1371.9 821.4 1374.9 852.3 1378 859.4C1382.1 868.9 1390.1 870.6 1397.2 872.2C1402.8 873.4 1408.1 874.5 1412.4 878.9C1412.5 879.1 1416 883.7 1414.4 919C1413.4 941.3 1410.8 968.8 1407.1 994.6C1399.5 1047.8 1391.2 1070.5 1386.3 1073.8C1380.7 1077.6 1361.7 1079.5 1333.7 1079.1C1336.1 1078.4 1338 1077.6 1339.3 1076.7C1358.7 1063.4 1377.1 887.8 1365.9 876.5C1354.7 865.3 1338.3 872.4 1332.2 858.1C1326.1 843.8 1317.9 710 1340.4 703.9C1362.9 697.8 1389.4 684.5 1391.5 665.1C1393.5 645.7 1409.9 481.3 1391.5 467C1373.1 452.7 1354.7 456.8 1353.7 451.7C1352.7 446.6 1362.9 405.7 1380.3 404.7C1397.7 403.7 1417.1 410.8 1422.2 383.3C1427.3 355.7 1432.4 208.7 1416.1 200.5C1399.8 192.3 1385.5 205.6 1381.4 200.5C1377.3 195.4 1386.5 61.6 1373.2 55.5C1371.9 54.9 1369.5 54.4 1366.1 53.8C1395.9 54.8 1416.6 56.8 1420.6 58.6C1421.3 59.2 1424.6 63.8 1425.7 93.9C1426.4 113.4 1426.1 136.7 1425.9 157.2C1425.4 194.2 1425.6 200.2 1427.6 202.6C1430.7 206.5 1435.7 205.1 1441 203.5C1447.3 201.6 1455.1 199.3 1463.5 203.5C1463.9 203.7 1467.6 206.2 1470.2 228.9C1471.8 242.8 1472.6 262.1 1472.7 284.5C1472.6 325.8 1470 369.2 1467.5 382.4Z" fill="#E5E5DE"/>
<path d="M828.3 870.7C825.7 865.1 792 880.4 785.4 881.9C778.8 883.4 778.8 902.3 774.7 899.8C770.6 897.2 755.3 708.8 755.3 695.5C755.3 682.2 750.7 690.4 749 678.1C747.3 665.8 753.7 668.9 770.1 646.4C786.4 623.9 804.8 272.6 799.7 250.1C794.6 227.6 770.1 218.4 744.6 219.5C719.1 220.5 721.1 225.6 702.7 245C684.3 264.4 647.6 609.6 648.6 627.1C649.6 644.6 669 656.5 671.1 674.9C672.5 687.8 666.4 693.1 658.8 701.5C652.3 708.6 648.4 717.6 647.6 727.2C642.8 784 623.4 1016.2 621.6 1028.8C619.6 1043.1 641 1084.5 648.6 1087.6C656.2 1090.7 699.7 1088.1 717 1087.6C734.4 1087.1 742.5 1052.3 749.5 1048.2C756.5 1044.1 757.8 1080.9 765.5 1085.6C773.2 1090.3 804.8 1085.5 807.9 1080.9C811 1076.3 793.6 991 795.1 983.9C796.6 976.9 830.9 876.3 828.3 870.7ZM724.9 970.7C723.6 986.5 701.7 1019.7 697.1 1020.7C692.5 1021.7 681.8 1021.7 676.7 1020.7C671.6 1019.7 668 1009.5 662.8 997.7C657.6 986 679.3 773 680.8 764.3C682.3 755.6 688.8 735.9 697.1 738.3C714.9 743.5 726.2 954.9 724.9 970.7ZM736.4 605.6C733.8 612.2 728.7 628.6 722.1 631.1C714.5 634 699.1 595.9 701.2 586.2C703.2 576.5 712.4 344.2 722.1 325.8C731.8 307.4 728.2 292.1 741 290.1C753.8 288.1 763.5 277.3 763 312.6C762.4 347.8 738.9 599 736.4 605.6Z" fill="#E5E5DE"/>
</svg>
